<svg xmlns="http://www.w3.org/2000/svg" width="45" height="45" viewBox="0 0 45 45">
  <g id="Group_2453" data-name="Group 2453" transform="translate(-13 -258)">
    <rect id="Rectangle_1919" data-name="Rectangle 1919" width="45" height="45" rx="4" transform="translate(13 258)" fill="#f2315d" opacity="0"/>
    <g id="PIKTOGRAM-89" transform="translate(20 268.726)">
      <path id="Path_3257" data-name="Path 3257" d="M7.522,33.249a1.118,1.118,0,0,1-.929-.65.966.966,0,0,1,.557-1.207,29.23,29.23,0,0,0,4.83-1.951C8.543,27.4,6.5,24.425,6.5,21.082,6.5,15.23,13.188,10.4,21.269,10.4s14.769,4.83,14.769,10.682S29.35,31.763,21.269,31.763a.929.929,0,1,1,0-1.858c7.152,0,12.911-3.994,12.911-8.824s-5.852-8.824-12.911-8.824S8.451,16.252,8.451,21.082c0,2.879,2.136,5.666,5.666,7.338l1.672.743-1.3.929A25.643,25.643,0,0,1,7.8,33.156.341.341,0,0,1,7.522,33.249Z" transform="translate(-6.5 -10.4)" fill="#939292"/>
      <ellipse id="Ellipse_367" data-name="Ellipse 367" cx="0.929" cy="0.929" rx="0.929" ry="0.929" transform="translate(9.567 9.753)" fill="#939292"/>
      <ellipse id="Ellipse_368" data-name="Ellipse 368" cx="0.929" cy="0.929" rx="0.929" ry="0.929" transform="translate(13.933 9.753)" fill="#939292"/>
      <ellipse id="Ellipse_369" data-name="Ellipse 369" cx="0.929" cy="0.929" rx="0.929" ry="0.929" transform="translate(18.298 9.753)" fill="#939292"/>
    </g>
  </g>
</svg>
