<svg xmlns="http://www.w3.org/2000/svg" width="45" height="45" viewBox="0 0 45 45">
  <g id="Group_2459" data-name="Group 2459" transform="translate(-13 -527)">
    <rect id="Rectangle_1926" data-name="Rectangle 1926" width="45" height="45" rx="4" transform="translate(13 527)" fill="#f2315d" opacity="0"/>
    <g id="PIKTOGRAM-01" transform="translate(21.93 538.581)">
      <line id="Line_89" data-name="Line 89" x2="1.115" transform="translate(3.901 3.901)" fill="none" stroke="#939292" stroke-linecap="round" stroke-miterlimit="10" stroke-width="2"/>
      <ellipse id="Ellipse_310" data-name="Ellipse 310" cx="6.874" cy="6.873" rx="6.874" ry="6.873" transform="translate(7.152 4.087)" fill="none" stroke="#939292" stroke-linecap="round" stroke-miterlimit="10" stroke-width="2"/>
      <path id="Path_3032" data-name="Path 3032" d="M32.186,33.828H10.358A3.132,3.132,0,0,1,7.2,30.669V15.158A3.132,3.132,0,0,1,10.358,12H32.279a3.055,3.055,0,0,1,3.065,3.158V30.669A3.132,3.132,0,0,1,32.186,33.828Z" transform="translate(-7.2 -12)" fill="none" stroke="#939292" stroke-linecap="round" stroke-miterlimit="10" stroke-width="2"/>
      <path id="Path_3033" data-name="Path 3033" d="M25.9,23.5A3.9,3.9,0,1,1,22,19.6" transform="translate(-7.976 -12.541)" fill="none" stroke="#939292" stroke-linecap="round" stroke-miterlimit="10" stroke-width="2"/>
    </g>
  </g>
</svg>
