<svg xmlns="http://www.w3.org/2000/svg" width="35" height="35" viewBox="0 0 35 35">
  <g id="Group_1084" data-name="Group 1084" transform="translate(-0.5 0.421)">
    <rect id="Rectangle_1765" data-name="Rectangle 1765" width="35" height="35" transform="translate(0.5 -0.421)" fill="#fff" opacity="0.36"/>
    <g id="PIKTOGRAM-49" transform="translate(7 8.879)">
      <line id="Line_696" data-name="Line 696" x2="2.94" transform="translate(3.957 6.86)" fill="none" stroke="#ee355e" stroke-linecap="round" stroke-linejoin="round" stroke-miterlimit="10" stroke-width="1"/>
      <line id="Line_697" data-name="Line 697" y1="3.01" transform="translate(5.427 5.39)" fill="none" stroke="#ee355e" stroke-linecap="round" stroke-linejoin="round" stroke-miterlimit="10" stroke-width="1"/>
      <circle id="Ellipse_473" data-name="Ellipse 473" cx="0.7" cy="0.7" r="0.7" transform="translate(15.437 6.16)" fill="#ee355e"/>
      <circle id="Ellipse_474" data-name="Ellipse 474" cx="0.7" cy="0.7" r="0.7" transform="translate(12.497 6.16)" fill="#ee355e"/>
      <circle id="Ellipse_475" data-name="Ellipse 475" cx="0.7" cy="0.7" r="0.7" transform="translate(14.037 4.76)" fill="#ee355e"/>
      <circle id="Ellipse_476" data-name="Ellipse 476" cx="0.7" cy="0.7" r="0.7" transform="translate(14.037 7.56)" fill="#ee355e"/>
      <path id="Path_3368" data-name="Path 3368" d="M21.294,13.319c1.61-.84,4.41,1.19,6.16,4.62a10.534,10.534,0,0,1,1.12,3.01c.14.63.21,1.26.28,1.82.07,1.4-.35,2.52-1.19,2.94-1.47.77-3.78-.77-5.53-3.5-.07-.07-.07-.14-.14-.28h0a21.467,21.467,0,0,0-3.29-.14,25.34,25.34,0,0,0-3.43.14h0c-.07.07-.07.14-.14.21-1.75,2.73-4.06,4.27-5.53,3.5-1.61-.84-1.54-4.27.21-7.7s4.55-5.46,6.16-4.62a6.765,6.765,0,0,0,1.89.77,2.871,2.871,0,0,0,.77.07A6.645,6.645,0,0,0,21.294,13.319Z" transform="translate(-8.447 -11.219)" fill="none" stroke="#ee355e" stroke-linecap="round" stroke-linejoin="round" stroke-miterlimit="10" stroke-width="1"/>
      <line id="Line_698" data-name="Line 698" y1="0.42" transform="translate(10.187 2.31)" fill="none" stroke="#ee355e" stroke-linecap="round" stroke-linejoin="round" stroke-miterlimit="10" stroke-width="1"/>
      <line id="Line_699" data-name="Line 699" y1="0.56" transform="translate(10.187 0)" fill="none" stroke="#ee355e" stroke-linecap="round" stroke-linejoin="round" stroke-miterlimit="10" stroke-width="1"/>
    </g>
  </g>
</svg>
