<svg xmlns="http://www.w3.org/2000/svg" width="52" height="45" viewBox="0 0 52 45">
  <g id="Group_2461" data-name="Group 2461" transform="translate(-9 -617)">
    <rect id="Rectangle_1928" data-name="Rectangle 1928" width="52" height="45" rx="4" transform="translate(9 617)" fill="#f2315d"/>
    <g id="PIKTOGRAM-07" transform="translate(22.858 626.39)">
      <line id="Line_128" data-name="Line 128" x2="5.48" y2="11.982" transform="translate(0.557 15.697)" fill="none" stroke="#fff" stroke-linecap="round" stroke-miterlimit="10" stroke-width="2"/>
      <line id="Line_129" data-name="Line 129" x2="2.136" y2="4.644" transform="translate(0 20.434)" fill="none" stroke="#fff" stroke-linecap="round" stroke-miterlimit="10" stroke-width="2"/>
      <line id="Line_130" data-name="Line 130" x2="5.48" y2="11.982" transform="translate(2.879 14.676)" fill="none" stroke="#fff" stroke-linecap="round" stroke-miterlimit="10" stroke-width="2"/>
      <line id="Line_131" data-name="Line 131" x1="5.48" y2="11.982" transform="translate(19.506 15.697)" fill="none" stroke="#fff" stroke-linecap="round" stroke-miterlimit="10" stroke-width="2"/>
      <line id="Line_132" data-name="Line 132" x1="2.136" y2="4.644" transform="translate(23.5 20.341)" fill="none" stroke="#fff" stroke-linecap="round" stroke-miterlimit="10" stroke-width="2"/>
      <line id="Line_133" data-name="Line 133" x1="5.48" y2="11.982" transform="translate(17.277 14.49)" fill="none" stroke="#fff" stroke-linecap="round" stroke-miterlimit="10" stroke-width="2"/>
      <path id="Path_3051" data-name="Path 3051" d="M19.946,7.7A12.58,12.58,0,0,0,8.8,20.239a11.75,11.75,0,0,0,.279,2.6l.186.464" transform="translate(-8.707 -7.7)" fill="none" stroke="#fff" stroke-linecap="round" stroke-miterlimit="10" stroke-width="2"/>
      <path id="Path_3052" data-name="Path 3052" d="M34.775,23.4a11.093,11.093,0,0,0,.372-3.065,12.377,12.377,0,0,0-.836-4.551A12.68,12.68,0,0,0,24,7.8" transform="translate(-9.789 -7.707)" fill="none" stroke="#fff" stroke-linecap="round" stroke-miterlimit="10" stroke-width="2"/>
    </g>
  </g>
</svg>
