<svg xmlns="http://www.w3.org/2000/svg" width="35" height="35" viewBox="0 0 35 35">
  <g id="Group_1085" data-name="Group 1085" transform="translate(-0.5 0.5)">
    <rect id="Rectangle_1764" data-name="Rectangle 1764" width="35" height="35" transform="translate(0.5 -0.5)" fill="#fff" opacity="0.36"/>
    <g id="PIKTOGRAM-46" transform="translate(8.399 7.001)">
      <line id="Line_703" data-name="Line 703" x2="2.45" transform="translate(15.89 13.72)" fill="none" stroke="#ee355e" stroke-linecap="round" stroke-linejoin="round" stroke-miterlimit="10" stroke-width="1"/>
      <line id="Line_704" data-name="Line 704" x2="13.02" transform="translate(0.14 13.72)" fill="none" stroke="#ee355e" stroke-linecap="round" stroke-linejoin="round" stroke-miterlimit="10" stroke-width="1"/>
      <path id="Path_3371" data-name="Path 3371" d="M26.67,31.13H8.4V21.61a2.3,2.3,0,0,1,2.38-2.31H24.36a2.444,2.444,0,0,1,1.68.7,2.318,2.318,0,0,1,.7,1.68v9.45Z" transform="translate(-8.33 -12.93)" fill="none" stroke="#ee355e" stroke-linecap="round" stroke-linejoin="round" stroke-miterlimit="10" stroke-width="1"/>
      <line id="Line_705" data-name="Line 705" y2="4.13" transform="translate(9.17 2.24)" fill="none" stroke="#ee355e" stroke-linecap="round" stroke-linejoin="round" stroke-miterlimit="10" stroke-width="1"/>
      <line id="Line_706" data-name="Line 706" y1="0.42" transform="translate(9.17 0)" fill="none" stroke="#ee355e" stroke-linecap="round" stroke-linejoin="round" stroke-miterlimit="10" stroke-width="1"/>
      <path id="Path_3372" data-name="Path 3372" d="M26.64,24.86a1.609,1.609,0,0,0-1.19-.56c-1.33,0-1.33,1.4-2.66,1.4s-1.33-1.4-2.66-1.4-1.33,1.4-2.66,1.4-1.33-1.4-2.66-1.4-1.33,1.4-2.66,1.4-1.33-1.4-2.66-1.4a1.452,1.452,0,0,0-1.19.63" transform="translate(-8.3 -14.43)" fill="none" stroke="#ee355e" stroke-linecap="round" stroke-linejoin="round" stroke-miterlimit="10" stroke-width="1"/>
    </g>
  </g>
</svg>
