<svg xmlns="http://www.w3.org/2000/svg" width="45" height="45" viewBox="0 0 45 45">
  <g id="Group_2452" data-name="Group 2452" transform="translate(-13 -348)">
    <rect id="Rectangle_1922" data-name="Rectangle 1922" width="45" height="45" rx="4" transform="translate(13 348)" fill="#f2315d" opacity="0"/>
    <g id="PIKTOGRAM-06" transform="translate(22.786 355.677)">
      <path id="Path_3246" data-name="Path 3246" d="M13.108,30.785C10.879,28.463,9.3,20.94,9.3,17.41a6.069,6.069,0,0,1,3.251-4.737,3.208,3.208,0,0,1-1.3-2.508,3.208,3.208,0,0,1,1.3-2.508A2.858,2.858,0,0,1,14.316,7.1a3.5,3.5,0,0,1,1.951.65" transform="translate(-9.3 -7.1)" fill="none" stroke="#939292" stroke-linecap="round" stroke-miterlimit="10" stroke-width="2"/>
      <path id="Path_3247" data-name="Path 3247" d="M32.93,27.72a8.173,8.173,0,0,0,.464-1.393,32.818,32.818,0,0,0,1.672-8.917,6.069,6.069,0,0,0-3.251-4.737,3.208,3.208,0,0,0,1.3-2.508A3.092,3.092,0,0,0,30.051,7.1a3.5,3.5,0,0,0-1.951.65" transform="translate(-10.638 -7.1)" fill="none" stroke="#939292" stroke-linecap="round" stroke-miterlimit="10" stroke-width="2"/>
      <path id="Path_3248" data-name="Path 3248" d="M31.4,32.557c.186-.186.279-.372.464-.557" transform="translate(-10.872 -8.872)" fill="none" stroke="#939292" stroke-linecap="round" stroke-miterlimit="10" stroke-width="2"/>
      <path id="Path_3249" data-name="Path 3249" d="M16.2,21.7a6.81,6.81,0,0,1,3.715-5.387,3.69,3.69,0,0,1-1.486-2.879,3.53,3.53,0,0,1,7.059,0A3.44,3.44,0,0,1,24,16.309s3.53,1.672,3.808,5.294a16.47,16.47,0,0,1-.093,2.043L27.439,25.6c-.836,5.2-2.972,11.982-5.48,11.982C18.8,37.765,16.2,26.433,16.2,21.7Z" transform="translate(-9.791 -7.299)" fill="none" stroke="#939292" stroke-linecap="round" stroke-miterlimit="10" stroke-width="2"/>
    </g>
  </g>
</svg>
