<svg xmlns="http://www.w3.org/2000/svg" width="27" height="26" viewBox="0 0 27 26">
  <g id="Group_1105" data-name="Group 1105" transform="translate(-970 -896)">
    <rect id="Rectangle_1771" data-name="Rectangle 1771" width="27" height="26" rx="4" transform="translate(970 896)" fill="#fcfcfc" opacity="0"/>
    <g id="PIKTOGRAM-41" transform="translate(969.1 897.3)">
      <line id="Line_1106" data-name="Line 1106" y2="0.2" transform="translate(14.1 5.6)" fill="none" stroke="#939292" stroke-linecap="round" stroke-linejoin="round" stroke-miterlimit="10" stroke-width="1"/>
      <line id="Line_1107" data-name="Line 1107" y2="0.7" transform="translate(14.1 3.7)" fill="none" stroke="#939292" stroke-linecap="round" stroke-linejoin="round" stroke-miterlimit="10" stroke-width="1"/>
      <path id="Path_3536" data-name="Path 3536" d="M21.4,18.4a11.973,11.973,0,0,1-5.2,1.9,14.769,14.769,0,0,1-2.1.1,12.75,12.75,0,0,1-2-.1,11.973,11.973,0,0,1-5.2-1.9h0c1.3-1.7,1.8-4.2,1.8-7.1a5.442,5.442,0,0,1,5.4-5.4,5.378,5.378,0,0,1,5.4,5.4c.1,3,.4,5.5,1.9,7.1Z" fill="none" stroke="#939292" stroke-linecap="round" stroke-linejoin="round" stroke-miterlimit="10" stroke-width="1"/>
    </g>
  </g>
</svg>
