<svg xmlns="http://www.w3.org/2000/svg" width="45" height="45" viewBox="0 0 45 45">
  <g id="Group_2462" data-name="Group 2462" transform="translate(-13 -662)">
    <rect id="Rectangle_1929" data-name="Rectangle 1929" width="45" height="45" rx="4" transform="translate(13 662)" fill="#f2315d" opacity="0"/>
    <g id="PIKTOGRAM-05" transform="translate(21.929 672.116)">
      <path id="Path_3046" data-name="Path 3046" d="M32.079,34.319H10.158A3.132,3.132,0,0,1,7,31.161v-11.8A3.055,3.055,0,0,1,10.158,16.3H32.079a3.033,3.033,0,0,1,3.065,3.065v11.8A3,3,0,0,1,32.079,34.319Z" transform="translate(-7 -9.612)" fill="none" stroke="#939292" stroke-linecap="round" stroke-miterlimit="10" stroke-width="2"/>
      <ellipse id="Ellipse_311" data-name="Ellipse 311" cx="0.929" cy="0.929" rx="0.929" ry="0.929" transform="translate(3.808 17.369)" fill="#939292"/>
      <ellipse id="Ellipse_312" data-name="Ellipse 312" cx="0.929" cy="0.929" rx="0.929" ry="0.929" transform="translate(6.502 17.369)" fill="#939292"/>
      <ellipse id="Ellipse_313" data-name="Ellipse 313" cx="0.929" cy="0.929" rx="0.929" ry="0.929" transform="translate(9.289 17.369)" fill="#939292"/>
      <line id="Line_123" data-name="Line 123" y1="0.279" x2="0.65" transform="translate(20.249 0)" fill="none" stroke="#939292" stroke-linecap="round" stroke-miterlimit="10" stroke-width="2"/>
      <line id="Line_124" data-name="Line 124" y1="5.48" x2="15.047" transform="translate(2.322 1.3)" fill="none" stroke="#939292" stroke-linecap="round" stroke-miterlimit="10" stroke-width="2"/>
      <line id="Line_125" data-name="Line 125" x2="13.375" transform="translate(14.862 12.446)" fill="none" stroke="#939292" stroke-linecap="round" stroke-miterlimit="10" stroke-width="2"/>
      <line id="Line_126" data-name="Line 126" x2="13.375" transform="translate(14.862 15.883)" fill="none" stroke="#939292" stroke-linecap="round" stroke-miterlimit="10" stroke-width="2"/>
      <line id="Line_127" data-name="Line 127" x2="13.375" transform="translate(14.862 19.505)" fill="none" stroke="#939292" stroke-linecap="round" stroke-miterlimit="10" stroke-width="2"/>
      <rect id="Rectangle_1434" data-name="Rectangle 1434" width="5.48" height="3.251" transform="translate(4.737 12.446)" stroke-width="2" stroke="#939292" stroke-linecap="round" stroke-linejoin="round" stroke-miterlimit="10" fill="none"/>
    </g>
  </g>
</svg>
