<svg xmlns="http://www.w3.org/2000/svg" width="27" height="26" viewBox="0 0 27 26">
  <g id="Group_1109" data-name="Group 1109" transform="translate(-970 -970)">
    <rect id="Rectangle_1770" data-name="Rectangle 1770" width="27" height="26" rx="4" transform="translate(970 970)" fill="#fcfcfc" opacity="0"/>
    <g id="PIKTOGRAM-74" transform="translate(970 969.699)">
      <line id="Line_319" data-name="Line 319" x2="1.6" transform="translate(12.7 3.3)" fill="none" stroke="#939292" stroke-linecap="round" stroke-linejoin="round" stroke-miterlimit="10" stroke-width="1"/>
      <line id="Line_320" data-name="Line 320" x2="5.1" transform="translate(12.3 5.1)" fill="none" stroke="#939292" stroke-linecap="round" stroke-linejoin="round" stroke-miterlimit="10" stroke-width="1"/>
      <path id="Path_3203" data-name="Path 3203" d="M11.1,6.8H21l-.2,1.5-.2,1.3-.2,1.3L18.8,21.2a2.249,2.249,0,0,1-2.2,1.9H10.4a2.249,2.249,0,0,1-2.2-1.9L6,6.8H8" fill="none" stroke="#939292" stroke-linecap="round" stroke-linejoin="round" stroke-miterlimit="10" stroke-width="1"/>
      <line id="Line_321" data-name="Line 321" x1="1.5" y1="9.5" transform="translate(9.2 10.2)" fill="none" stroke="#939292" stroke-linecap="round" stroke-linejoin="round" stroke-miterlimit="10" stroke-width="1"/>
      <line id="Line_322" data-name="Line 322" x1="1.5" y2="9.5" transform="translate(16.3 10.2)" fill="none" stroke="#939292" stroke-linecap="round" stroke-linejoin="round" stroke-miterlimit="10" stroke-width="1"/>
      <line id="Line_323" data-name="Line 323" x2="15" transform="translate(6 5.1)" fill="none" stroke="#939292" stroke-linecap="round" stroke-linejoin="round" stroke-miterlimit="10" stroke-width="1"/>
      <path id="Path_3204" data-name="Path 3204" d="M13.5,10.2v9.5" fill="none" stroke="#939292" stroke-linecap="round" stroke-linejoin="round" stroke-miterlimit="10" stroke-width="1"/>
    </g>
  </g>
</svg>
