<svg xmlns="http://www.w3.org/2000/svg" width="45" height="45" viewBox="0 0 45 45">
  <g id="Group_2454" data-name="Group 2454" transform="translate(-13 -303)">
    <rect id="Rectangle_1921" data-name="Rectangle 1921" width="45" height="45" rx="4" transform="translate(13 303)" fill="#f2315d" opacity="0"/>
    <g id="PIKTOGRAM-19" transform="translate(21.93 312.738)">
      <path id="Path_3258" data-name="Path 3258" d="M13.1,30.626c.372-5.759,5.666-8.174,5.666-8.174a5.633,5.633,0,0,1-2.229-4.366,5.387,5.387,0,0,1,10.775,0,5.5,5.5,0,0,1-2.322,4.458s5.387,2.508,5.852,8.081" transform="translate(-8.549 -8.056)" fill="none" stroke="#939292" stroke-linecap="round" stroke-miterlimit="10" stroke-width="2"/>
      <line id="Line_422" data-name="Line 422" x2="26.565" transform="translate(0 26.193)" fill="none" stroke="#939292" stroke-linecap="round" stroke-miterlimit="10" stroke-width="2"/>
      <line id="Line_423" data-name="Line 423" x2="26.565" transform="translate(0 0)" fill="none" stroke="#939292" stroke-linecap="round" stroke-miterlimit="10" stroke-width="2"/>
      <line id="Line_424" data-name="Line 424" x2="0.279" transform="translate(3.715 3.53)" fill="none" stroke="#939292" stroke-linecap="round" stroke-miterlimit="10" stroke-width="2"/>
      <line id="Line_425" data-name="Line 425" x2="1.3" transform="translate(0 3.53)" fill="none" stroke="#939292" stroke-linecap="round" stroke-miterlimit="10" stroke-width="2"/>
      <line id="Line_426" data-name="Line 426" x2="3.994" transform="translate(0 6.13)" fill="none" stroke="#939292" stroke-linecap="round" stroke-miterlimit="10" stroke-width="2"/>
    </g>
  </g>
</svg>
