<svg xmlns="http://www.w3.org/2000/svg" width="26.2" height="20.1" viewBox="0 0 26.2 20.1">
  <g id="PIKTOGRAM-64" transform="translate(-0.5 -3.5)">
    <path id="Path_3232" data-name="Path 3232" d="M1.5,22.6c0-5.8,5.3-8,5.3-8a5.127,5.127,0,0,1-1.3-3.4,4.9,4.9,0,1,1,9.8,0A4.689,4.689,0,0,1,14,14.5s5.3,2.2,5.3,8" fill="none" stroke="#fff" stroke-linecap="round" stroke-miterlimit="10" stroke-width="2"/>
    <path id="Path_3233" data-name="Path 3233" d="M25.7,20.7v.4" fill="none" stroke="#fff" stroke-linecap="round" stroke-miterlimit="10" stroke-width="2"/>
    <path id="Path_3234" data-name="Path 3234" d="M15.6,4.6a4.869,4.869,0,0,1,1.2-.1,4.908,4.908,0,0,1,4.9,4.9,4.689,4.689,0,0,1-1.3,3.3,9.226,9.226,0,0,1,5,5.7" fill="none" stroke="#fff" stroke-linecap="round" stroke-miterlimit="10" stroke-width="2"/>
  </g>
</svg>
