<svg xmlns="http://www.w3.org/2000/svg" width="21.4" height="24.5" viewBox="0 0 21.4 24.5">
  <g id="PIKTOGRAM-62" transform="translate(-2.8 -1)">
    <line id="Line_297" data-name="Line 297" y2="0.3" transform="translate(13.4 4.6)" fill="none" stroke="#fff" stroke-linecap="round" stroke-linejoin="round" stroke-miterlimit="10" stroke-width="2"/>
    <line id="Line_298" data-name="Line 298" y2="0.4" transform="translate(13.4 2)" fill="none" stroke="#fff" stroke-linecap="round" stroke-linejoin="round" stroke-miterlimit="10" stroke-width="2"/>
    <path id="Path_3187" data-name="Path 3187" d="M23.2,21.7a15.8,15.8,0,0,1-6.9,2.6,24.583,24.583,0,0,1-2.8.2,24.519,24.519,0,0,1-2.7-.2,18.162,18.162,0,0,1-7-2.5h0c1.8-2.3,2.4-5.6,2.4-9.6a7.3,7.3,0,0,1,14.6,0c-.1,3.9.4,7.4,2.4,9.5Z" fill="none" stroke="#fff" stroke-linecap="round" stroke-linejoin="round" stroke-miterlimit="10" stroke-width="2"/>
  </g>
</svg>
