<svg xmlns="http://www.w3.org/2000/svg" width="26" height="20.2" viewBox="0 0 26 20.2">
  <g id="PIKTOGRAM-66" transform="translate(-0.3 -3.4)">
    <path id="Path_3196" data-name="Path 3196" d="M1.4,23.6a1.063,1.063,0,0,1-1-.9.937.937,0,0,1,.8-1.1,12.524,12.524,0,0,0,3.7-1.5C2,18.3.3,15.7.3,12.9c0-5.2,5.8-9.5,13-9.5s13,4.2,13,9.5-5.8,9.5-13,9.5a1,1,0,0,1,0-2c6.1,0,11-3.3,11-7.5s-4.9-7.5-11-7.5-11,3.3-11,7.5c0,2.5,1.8,4.8,4.8,6.2l1.7.8-1.4,1a17.416,17.416,0,0,1-6,2.7Q1.55,23.6,1.4,23.6Z" fill="#ee355e"/>
    <circle id="Ellipse_340" data-name="Ellipse 340" cx="1" cy="1" r="1" transform="translate(7.7 11.9)" fill="#ee355e"/>
    <circle id="Ellipse_341" data-name="Ellipse 341" cx="1" cy="1" r="1" transform="translate(12.4 11.9)" fill="#ee355e"/>
    <circle id="Ellipse_342" data-name="Ellipse 342" cx="1" cy="1" r="1" transform="translate(17 11.9)" fill="#ee355e"/>
  </g>
</svg>
